<svg width="200" height="213" viewBox="0 0 200 213" fill="none" xmlns="http://www.w3.org/2000/svg">
<rect y="13" width="200" height="200" fill="#F5F9E9"/>
<g clip-path="url(#clip0)">
<path d="M106.4 94.4176L113.616 90.2509L113.95 49.1625L133.797 37.7042C136.792 35.975 137.814 32.1616 136.084 29.1665C134.355 26.1715 130.542 25.1497 127.547 26.8789L107.7 38.3372L71.9498 18.0822L64.7329 22.2488L91.4623 47.7122L71.6159 59.1706L60.9949 53.2745L55.5823 56.3995L67.524 68.7499L72.2489 85.267L77.6616 82.142L77.8659 69.9959L97.7123 58.5375L106.4 94.4176Z" fill="#36453B"/>
</g>
<path d="M71.5096 104.41C72.2596 104.41 72.9046 104.665 73.4446 105.175C74.0146 105.685 74.2996 106.3 74.2996 107.02C74.2996 107.41 74.2096 107.815 74.0296 108.235L62.9146 134.245C62.6446 134.815 62.2696 135.25 61.7896 135.55C61.3096 135.85 60.7996 136 60.2596 136C59.7496 135.97 59.2696 135.82 58.8196 135.55C58.3996 135.25 58.0696 134.83 57.8296 134.29L46.7146 108.19C46.5646 107.89 46.4896 107.515 46.4896 107.065C46.4896 106.255 46.7896 105.61 47.3896 105.13C47.9896 104.62 48.6046 104.365 49.2346 104.365C49.7446 104.365 50.2246 104.515 50.6746 104.815C51.1246 105.115 51.4696 105.55 51.7096 106.12L60.7546 127.405L69.0346 106.12C69.2746 105.58 69.6196 105.16 70.0696 104.86C70.5196 104.56 70.9996 104.41 71.5096 104.41ZM102.18 132.49C102.33 132.88 102.405 133.24 102.405 133.57C102.405 134.35 102.15 134.995 101.64 135.505C101.13 135.985 100.545 136.225 99.8846 136.225C99.3446 136.225 98.8496 136.06 98.3996 135.73C97.9796 135.4 97.6496 134.95 97.4096 134.38L95.0696 128.935H81.6596L79.3196 134.425C79.1096 134.995 78.7796 135.445 78.3296 135.775C77.9096 136.075 77.4446 136.225 76.9346 136.225C76.1546 136.225 75.5546 136.015 75.1346 135.595C74.7446 135.175 74.5496 134.605 74.5496 133.885C74.5496 133.615 74.5946 133.33 74.6846 133.03L85.8896 106.12C86.1296 105.52 86.4896 105.055 86.9696 104.725C87.4496 104.395 87.9896 104.26 88.5896 104.32C89.1296 104.32 89.6246 104.485 90.0746 104.815C90.5546 105.115 90.8996 105.55 91.1096 106.12L102.18 132.49ZM92.8646 123.76L88.3196 113.23L83.8646 123.76H92.8646ZM123.585 130.735C124.365 130.735 125.01 130.99 125.52 131.5C126.06 131.98 126.33 132.61 126.33 133.39C126.33 134.14 126.06 134.77 125.52 135.28C125.01 135.76 124.365 136 123.585 136H108.96C108.18 136 107.52 135.745 106.98 135.235C106.47 134.695 106.215 134.035 106.215 133.255V107.245C106.215 106.465 106.485 105.82 107.025 105.31C107.565 104.77 108.255 104.5 109.095 104.5C109.845 104.5 110.49 104.77 111.03 105.31C111.57 105.82 111.84 106.465 111.84 107.245V130.735H123.585ZM149.303 130.825C150.083 130.825 150.728 131.095 151.238 131.635C151.778 132.145 152.048 132.745 152.048 133.435C152.048 134.185 151.778 134.8 151.238 135.28C150.728 135.76 150.083 136 149.303 136H134.228C133.448 136 132.788 135.745 132.248 135.235C131.738 134.695 131.483 134.035 131.483 133.255V107.245C131.483 106.465 131.738 105.82 132.248 105.31C132.788 104.77 133.448 104.5 134.228 104.5H149.303C150.083 104.5 150.728 104.755 151.238 105.265C151.778 105.745 152.048 106.375 152.048 107.155C152.048 107.905 151.793 108.52 151.283 109C150.773 109.45 150.113 109.675 149.303 109.675H137.108V117.325H147.278C148.058 117.325 148.703 117.58 149.213 118.09C149.753 118.57 150.023 119.2 150.023 119.98C150.023 120.73 149.768 121.345 149.258 121.825C148.748 122.275 148.088 122.5 147.278 122.5H137.108V130.825H149.303ZM61.5462 160.5C62.3562 160.5 63.0162 160.74 63.5262 161.22C64.0362 161.7 64.2912 162.33 64.2912 163.11C64.2912 163.89 64.0362 164.52 63.5262 165C63.0162 165.45 62.3562 165.675 61.5462 165.675H54.4812V189.255C54.4812 190.035 54.1962 190.695 53.6262 191.235C53.0562 191.745 52.3512 192 51.5112 192C50.6712 192 49.9812 191.745 49.4412 191.235C48.9012 190.695 48.6312 190.035 48.6312 189.255V165.675H41.5662C40.7562 165.675 40.0962 165.435 39.5862 164.955C39.0762 164.475 38.8212 163.845 38.8212 163.065C38.8212 162.315 39.0762 161.7 39.5862 161.22C40.1262 160.74 40.7862 160.5 41.5662 160.5H61.5462ZM97.1162 176.25C97.1162 179.22 96.4562 181.95 95.1362 184.44C93.8162 186.9 91.9862 188.85 89.6462 190.29C87.3362 191.73 84.7262 192.45 81.8162 192.45C78.9062 192.45 76.2812 191.73 73.9412 190.29C71.6312 188.85 69.8162 186.9 68.4962 184.44C67.2062 181.95 66.5612 179.22 66.5612 176.25C66.5612 173.28 67.2062 170.565 68.4962 168.105C69.8162 165.615 71.6312 163.65 73.9412 162.21C76.2812 160.77 78.9062 160.05 81.8162 160.05C84.7262 160.05 87.3362 160.77 89.6462 162.21C91.9862 163.65 93.8162 165.615 95.1362 168.105C96.4562 170.565 97.1162 173.28 97.1162 176.25ZM91.2662 176.25C91.2662 174.24 90.8612 172.425 90.0512 170.805C89.2412 169.155 88.1162 167.85 86.6762 166.89C85.2362 165.93 83.6162 165.45 81.8162 165.45C79.9862 165.45 78.3512 165.93 76.9112 166.89C75.5012 167.82 74.3912 169.11 73.5812 170.76C72.8012 172.41 72.4112 174.24 72.4112 176.25C72.4112 178.26 72.8012 180.09 73.5812 181.74C74.3912 183.39 75.5012 184.695 76.9112 185.655C78.3512 186.585 79.9862 187.05 81.8162 187.05C83.6162 187.05 85.2362 186.57 86.6762 185.61C88.1162 184.65 89.2412 183.36 90.0512 181.74C90.8612 180.09 91.2662 178.26 91.2662 176.25ZM124.647 160.455C125.427 160.455 126.057 160.71 126.537 161.22C127.017 161.73 127.257 162.39 127.257 163.2V179.49C127.257 181.98 126.732 184.185 125.682 186.105C124.632 188.025 123.162 189.525 121.272 190.605C119.382 191.685 117.222 192.225 114.792 192.225C112.362 192.225 110.187 191.685 108.267 190.605C106.377 189.525 104.907 188.025 103.857 186.105C102.807 184.185 102.282 181.98 102.282 179.49V163.2C102.282 162.42 102.552 161.775 103.092 161.265C103.632 160.725 104.322 160.455 105.162 160.455C105.882 160.455 106.512 160.725 107.052 161.265C107.592 161.775 107.862 162.42 107.862 163.2V179.49C107.862 180.93 108.177 182.22 108.807 183.36C109.437 184.47 110.277 185.325 111.327 185.925C112.407 186.525 113.562 186.825 114.792 186.825C116.082 186.825 117.282 186.525 118.392 185.925C119.532 185.325 120.432 184.47 121.092 183.36C121.782 182.22 122.127 180.93 122.127 179.49V163.2C122.127 162.39 122.352 161.73 122.802 161.22C123.252 160.71 123.867 160.455 124.647 160.455ZM158.715 187.59C159.105 187.83 159.405 188.145 159.615 188.535C159.855 188.925 159.975 189.33 159.975 189.75C159.975 190.29 159.795 190.785 159.435 191.235C158.985 191.775 158.295 192.045 157.365 192.045C156.645 192.045 155.985 191.88 155.385 191.55C153.225 190.32 152.145 187.815 152.145 184.035C152.145 182.955 151.785 182.1 151.065 181.47C150.375 180.84 149.37 180.525 148.05 180.525H139.635V189.255C139.635 190.065 139.41 190.725 138.96 191.235C138.54 191.745 137.97 192 137.25 192C136.38 192 135.615 191.745 134.955 191.235C134.325 190.695 134.01 190.035 134.01 189.255V163.245C134.01 162.465 134.265 161.82 134.775 161.31C135.315 160.77 135.975 160.5 136.755 160.5H149.715C151.275 160.5 152.745 160.92 154.125 161.76C155.505 162.6 156.6 163.755 157.41 165.225C158.25 166.695 158.67 168.345 158.67 170.175C158.67 171.675 158.265 173.145 157.455 174.585C156.645 175.995 155.595 177.12 154.305 177.96C156.195 179.28 157.23 181.05 157.41 183.27C157.5 183.75 157.545 184.215 157.545 184.665C157.665 185.595 157.785 186.27 157.905 186.69C158.025 187.08 158.295 187.38 158.715 187.59ZM149.49 175.89C150.03 175.89 150.555 175.635 151.065 175.125C151.575 174.615 151.995 173.94 152.325 173.1C152.655 172.23 152.82 171.3 152.82 170.31C152.82 169.47 152.655 168.705 152.325 168.015C151.995 167.295 151.575 166.725 151.065 166.305C150.555 165.885 150.03 165.675 149.49 165.675H139.635V175.89H149.49Z" fill="#36453B"/>
<defs>
<clipPath id="clip0">
<rect x="50" width="100" height="100" fill="white"/>
</clipPath>
</defs>
</svg>
